<svg id="visual" viewBox="0 0 960 400" width="960" height="400" xmlns="http://www.w3.org/2000/svg" xmlns:xlink="http://www.w3.org/1999/xlink" version="1.1"><rect x="0" y="0" width="960" height="400" fill="#001220"></rect><path d="M0 162L22.8 152.3C45.7 142.7 91.3 123.3 137 113.8C182.7 104.3 228.3 104.7 274 108.8C319.7 113 365.3 121 411.2 129.5C457 138 503 147 548.8 149.7C594.7 152.3 640.3 148.7 686 141.3C731.7 134 777.3 123 823 123.3C868.7 123.7 914.3 135.3 937.2 141.2L960 147L960 0L937.2 0C914.3 0 868.7 0 823 0C777.3 0 731.7 0 686 0C640.3 0 594.7 0 548.8 0C503 0 457 0 411.2 0C365.3 0 319.7 0 274 0C228.3 0 182.7 0 137 0C91.3 0 45.7 0 22.8 0L0 0Z" fill="#fa7268"></path><path d="M0 102L22.8 101.2C45.7 100.3 91.3 98.7 137 99.2C182.7 99.7 228.3 102.3 274 102.5C319.7 102.7 365.3 100.3 411.2 103.8C457 107.3 503 116.7 548.8 117.3C594.7 118 640.3 110 686 109.8C731.7 109.7 777.3 117.3 823 119.8C868.7 122.3 914.3 119.7 937.2 118.3L960 117L960 0L937.2 0C914.3 0 868.7 0 823 0C777.3 0 731.7 0 686 0C640.3 0 594.7 0 548.8 0C503 0 457 0 411.2 0C365.3 0 319.7 0 274 0C228.3 0 182.7 0 137 0C91.3 0 45.7 0 22.8 0L0 0Z" fill="#eb5967"></path><path d="M0 84L22.8 79C45.7 74 91.3 64 137 62.5C182.7 61 228.3 68 274 71C319.7 74 365.3 73 411.2 71C457 69 503 66 548.8 67C594.7 68 640.3 73 686 76.5C731.7 80 777.3 82 823 79.2C868.7 76.3 914.3 68.7 937.2 64.8L960 61L960 0L937.2 0C914.3 0 868.7 0 823 0C777.3 0 731.7 0 686 0C640.3 0 594.7 0 548.8 0C503 0 457 0 411.2 0C365.3 0 319.7 0 274 0C228.3 0 182.7 0 137 0C91.3 0 45.7 0 22.8 0L0 0Z" fill="#da3f67"></path><path d="M0 34L22.8 32.2C45.7 30.3 91.3 26.7 137 30.8C182.7 35 228.3 47 274 47.8C319.7 48.7 365.3 38.3 411.2 32.7C457 27 503 26 548.8 29.7C594.7 33.3 640.3 41.7 686 40.7C731.7 39.7 777.3 29.3 823 30.7C868.7 32 914.3 45 937.2 51.5L960 58L960 0L937.2 0C914.3 0 868.7 0 823 0C777.3 0 731.7 0 686 0C640.3 0 594.7 0 548.8 0C503 0 457 0 411.2 0C365.3 0 319.7 0 274 0C228.3 0 182.7 0 137 0C91.3 0 45.7 0 22.8 0L0 0Z" fill="#c62368"></path></svg>