<svg id="visual" viewBox="0 0 960 400" width="960" height="400" xmlns="http://www.w3.org/2000/svg" xmlns:xlink="http://www.w3.org/1999/xlink" version="1.1"><rect x="0" y="0" width="960" height="400" fill="#001220"></rect><path d="M0 297L22.8 289.8C45.7 282.7 91.3 268.3 137 268.5C182.7 268.7 228.3 283.3 274 288.5C319.7 293.7 365.3 289.3 411.2 290.2C457 291 503 297 548.8 292C594.7 287 640.3 271 686 268.2C731.7 265.3 777.3 275.7 823 282.7C868.7 289.7 914.3 293.3 937.2 295.2L960 297L960 401L937.2 401C914.3 401 868.7 401 823 401C777.3 401 731.7 401 686 401C640.3 401 594.7 401 548.8 401C503 401 457 401 411.2 401C365.3 401 319.7 401 274 401C228.3 401 182.7 401 137 401C91.3 401 45.7 401 22.8 401L0 401Z" fill="#c62368"></path><path d="M0 304L22.8 308.2C45.7 312.3 91.3 320.7 137 317.8C182.7 315 228.3 301 274 298.8C319.7 296.7 365.3 306.3 411.2 312.3C457 318.3 503 320.7 548.8 321.7C594.7 322.7 640.3 322.3 686 321.8C731.7 321.3 777.3 320.7 823 317.2C868.7 313.7 914.3 307.3 937.2 304.2L960 301L960 401L937.2 401C914.3 401 868.7 401 823 401C777.3 401 731.7 401 686 401C640.3 401 594.7 401 548.8 401C503 401 457 401 411.2 401C365.3 401 319.7 401 274 401C228.3 401 182.7 401 137 401C91.3 401 45.7 401 22.8 401L0 401Z" fill="#e34c67"></path><path d="M0 348L22.8 344.8C45.7 341.7 91.3 335.3 137 334.2C182.7 333 228.3 337 274 340.7C319.7 344.3 365.3 347.7 411.2 347.2C457 346.7 503 342.3 548.8 343.8C594.7 345.3 640.3 352.7 686 353.7C731.7 354.7 777.3 349.3 823 344.5C868.7 339.7 914.3 335.3 937.2 333.2L960 331L960 401L937.2 401C914.3 401 868.7 401 823 401C777.3 401 731.7 401 686 401C640.3 401 594.7 401 548.8 401C503 401 457 401 411.2 401C365.3 401 319.7 401 274 401C228.3 401 182.7 401 137 401C91.3 401 45.7 401 22.8 401L0 401Z" fill="#fa7268"></path></svg>